PathFileType  4	(X/Y/Z) C:\Users\antoi\Documents\MyRepositories\mobilecap\ResultsAnalysis
DataRate	CameraRate	NumFrames	NumMarkers	Units	OrigDataRate	OrigDataStartFrame	OrigNumFrames
100.0	100.0	5	51	mm	100.0	168	1338
Frame#	Time	r_knee			r_shank_antsup			r_ankle			r_calc			r_5meta			r_toe			L_knee			L_shank_antsup			L_ankle			L_calc			L_5meta			L_toe			r_sh2			r_sh3			r_sh4			L_sh2			L_sh3			r_thigh1			r_thigh2			r_thigh3			r_thigh4			r_thigh5			L_thigh1			L_thigh2			L_thigh3			L_thigh4			r.ASIS			r.PSIS			L.ASIS			L.PSIS			C7			R_Shoulder			L_Shoulder			R_Sternum			L_Sternum			R_humerus			R_elbow_med			R_elbow_lat			R_forearm			R_wrist_radius			R_wrist_ulna			L_humerus			L_elbow_med			L_elbow_lat			L_forearm			L_wrist_radius			L_wrist_ulna			R_HJC			L_HJC			R_HJC_reg			L_HJC_reg			
		X1	Y1	Z1	X2	Y2	Z2	X3	Y3	Z3	X4	Y4	Z4	X5	Y5	Z5	X6	Y6	Z6	X7	Y7	Z7	X8	Y8	Z8	X9	Y9	Z9	X10	Y10	Z10	X11	Y11	Z11	X12	Y12	Z12	X13	Y13	Z13	X14	Y14	Z14	X15	Y15	Z15	X16	Y16	Z16	X17	Y17	Z17	X18	Y18	Z18	X19	Y19	Z19	X20	Y20	Z20	X21	Y21	Z21	X22	Y22	Z22	X23	Y23	Z23	X24	Y24	Z24	X25	Y25	Z25	X26	Y26	Z26	X27	Y27	Z27	X28	Y28	Z28	X29	Y29	Z29	X30	Y30	Z30	X31	Y31	Z31	X32	Y32	Z32	X33	Y33	Z33	X34	Y34	Z34	X35	Y35	Z35	X36	Y36	Z36	X37	Y37	Z37	X38	Y38	Z38	X39	Y39	Z39	X40	Y40	Z40	X41	Y41	Z41	X42	Y42	Z42	X43	Y43	Z43	X44	Y44	Z44	X45	Y45	Z45	X46	Y46	Z46	X47	Y47	Z47	X48	Y48	Z48	X49	Y49	Z49	X50	Y50	Z50	X51	Y51	Z51	

168	1.67000000	-122.73445	460.36281	-356.10877	-90.94352	360.45088	-368.47077	-274.22673	88.93040	-387.79907	-336.41572	56.72407	-440.87851	-160.41331	42.83068	-343.62043	-125.14545	71.91289	-396.79696	-119.14312	501.51609	-756.92767	-78.71143	411.73124	-766.14256	-246.96642	117.76069	-798.46394	-319.34821	83.44443	-744.26447	-157.98478	41.27085	-847.48110	-102.18337	61.23513	-798.28357	-137.40129	256.88452	-376.73272	-150.02481	381.41469	-326.00806	-202.76023	278.66979	-328.67532	-150.57972	458.19505	-792.17524	-199.86856	344.88339	-812.30657	-279.54126	686.31237	-319.53136	-197.94734	618.75104	-341.79335	-209.05596	556.11713	-313.69368	-349.28717	597.60174	-306.20370	-257.00392	529.05666	-327.27141	-253.78321	701.59145	-697.99108	-138.42946	624.54705	-711.00614	-315.75655	627.29604	-748.84789	-206.46441	548.92776	-751.25450	-277.21271	742.14287	-378.95847	-434.16952	871.81779	-459.47753	-273.99515	740.60032	-629.30180	-428.08945	868.67317	-555.27391	-127.25613	1194.34855	-465.35446	-41.27043	1118.64027	-316.74847	-48.34190	1121.12353	-607.14440	-49.15772	1068.30519	-451.11967	-46.84515	1072.91534	-490.12105	36.37005	1031.01236	-280.98709	93.53031	826.37776	-314.50793	116.94735	846.30160	-251.15400	188.90208	897.56888	-287.58514	287.57379	947.70095	-411.40927	317.12105	925.31294	-377.50881	21.44555	1032.06145	-660.91961	75.69658	836.96482	-637.98570	101.41038	870.53919	-709.02173	161.31804	911.43757	-678.83389	280.94591	962.68369	-567.50059	306.03059	932.48856	-601.92536	-390.84702	707.42341	-403.82995	-386.43106	706.38823	-593.33816	-380.76329	714.57790	-419.77313	-370.30237	709.16643	-584.59632	
169	1.68000000	-122.83788	460.56200	-356.18455	-91.09804	360.73174	-368.74304	-274.13135	88.99916	-387.87198	-336.38167	56.77681	-440.91544	-160.42237	42.76210	-343.62479	-125.09506	71.73261	-396.82632	-118.85782	501.54366	-757.15357	-78.72647	411.64970	-766.31766	-247.01462	117.70021	-798.41947	-319.36788	83.34305	-744.19797	-158.01265	41.29030	-847.46625	-102.20385	61.24987	-798.26784	-137.40942	257.12917	-376.88049	-150.20315	381.63131	-326.40009	-202.62831	278.85818	-329.20859	-152.59476	456.64845	-791.02171	-199.90495	344.78918	-812.47250	-276.91744	688.13032	-319.96252	-195.79632	619.79992	-341.74760	-208.05350	557.64656	-313.85090	-347.68167	600.80970	-306.79113	-256.26943	531.19326	-327.53115	-250.94057	703.55740	-698.50549	-136.62831	625.21858	-711.81813	-313.84756	629.93237	-749.08490	-205.58027	550.16924	-751.38930	-274.63803	746.99555	-379.31397	-432.49622	876.26869	-459.39765	-271.42106	745.59254	-628.99956	-426.42901	873.19680	-555.06536	-129.49149	1202.33918	-465.37298	-43.24877	1127.44758	-316.22245	-50.26111	1129.96575	-607.36901	-50.39519	1077.24918	-450.89970	-48.02760	1081.92997	-489.92686	34.34536	1038.56037	-280.02058	90.45717	833.78175	-315.36238	113.56107	853.27141	-251.74461	187.52142	902.16915	-287.10221	289.97246	947.36228	-409.98364	318.23368	924.24111	-375.27834	19.35612	1040.15044	-661.40881	73.25122	844.91566	-637.71217	98.50407	878.03970	-709.67281	160.26676	916.88427	-679.93688	283.84320	962.54995	-569.98242	307.09275	931.62739	-604.99992	-388.25350	711.89072	-403.82863	-383.88399	711.00472	-593.33860	-377.99309	719.21082	-420.01267	-367.56753	713.93336	-584.40703	
170	1.69000000	-122.88969	460.84718	-356.19275	-91.34629	361.06118	-368.98923	-274.05567	89.06304	-387.90473	-336.36807	56.81377	-440.93440	-160.40169	42.69900	-343.59415	-125.07263	71.62706	-396.83281	-118.60469	501.65013	-757.49958	-78.78708	411.58141	-766.38094	-247.10721	117.49457	-798.13722	-319.41405	83.17411	-743.99810	-158.04375	41.31956	-847.44413	-102.24359	61.26831	-798.24485	-137.46772	257.30597	-376.94797	-150.42892	381.80657	-326.83385	-202.67376	279.18231	-329.65810	-154.25764	455.37737	-789.90842	-200.00137	344.67790	-812.53781	-274.17079	690.39179	-320.53221	-193.85872	621.00227	-341.93621	-206.96435	559.05063	-314.40170	-346.07665	604.10941	-307.42840	-255.55690	533.42730	-327.86395	-248.02936	705.53874	-698.90050	-134.92231	625.82712	-712.28937	-311.89156	632.79462	-749.56673	-204.77350	551.60661	-751.66189	-271.95611	752.28563	-378.97737	-430.76319	880.80372	-459.45151	-268.84441	750.88731	-629.01778	-424.75809	877.79809	-554.86031	-131.88615	1210.54244	-465.22203	-45.26259	1136.35823	-315.74368	-52.14833	1138.93673	-607.59370	-51.58740	1086.36865	-450.70412	-49.31604	1091.12975	-489.69521	32.28426	1046.29336	-279.13942	87.08433	841.33206	-316.14061	109.98839	860.23340	-252.28748	185.81777	906.74476	-286.67828	291.95001	946.59025	-408.36869	318.80070	922.85811	-372.87423	17.22579	1048.38891	-662.00083	70.06001	852.75494	-638.05304	95.32113	885.55100	-710.25359	159.21938	922.35914	-681.46621	286.24213	962.19087	-572.65869	307.51137	930.80495	-608.50112	-385.51114	716.63973	-403.67847	-381.16949	715.72910	-593.18904	-375.27146	723.83978	-419.68209	-364.90952	718.65429	-584.31659	
171	1.70000000	-122.91175	461.14209	-356.37821	-91.59836	361.41827	-369.25269	-273.98595	89.11599	-387.97806	-336.34761	56.85137	-440.94436	-160.35952	42.70799	-343.56979	-125.06150	71.56612	-396.85308	-118.41327	501.76593	-757.78821	-78.89860	411.53320	-766.39680	-247.22698	117.22859	-797.69123	-319.48114	82.97247	-743.70016	-158.08059	41.35577	-847.41979	-102.29365	61.29770	-798.22607	-137.54291	257.45431	-377.07112	-150.70742	382.06769	-327.15117	-202.85599	279.51463	-329.88207	-154.46092	455.29949	-789.94761	-200.15908	344.57003	-812.50542	-271.27704	692.87972	-321.13629	-191.95598	622.46901	-342.33881	-205.88155	560.49805	-315.00737	-344.44477	607.50361	-308.16399	-254.83563	535.66164	-328.42572	-245.03759	707.62508	-699.42605	-133.10770	626.49764	-712.76100	-309.89386	635.66976	-749.91119	-203.94497	553.08841	-751.87085	-269.27009	757.63264	-378.83768	-428.92942	885.37930	-459.57399	-266.20741	756.31949	-629.01653	-423.01924	882.57929	-554.92095	-134.47141	1218.87863	-465.11142	-47.29962	1145.40396	-315.23430	-53.82941	1148.37404	-607.69950	-52.70603	1095.60364	-450.48654	-50.54348	1100.47991	-489.55308	30.15105	1054.16881	-278.33328	83.45195	848.92405	-316.61190	106.15067	867.15885	-252.74716	183.77875	911.23456	-286.28073	293.40423	945.50963	-406.53994	318.77975	921.13569	-370.49602	14.97071	1056.76533	-662.66915	66.08966	860.13048	-639.39983	91.91043	892.96073	-710.53239	157.67253	927.76106	-682.80927	288.04706	961.58962	-575.40016	307.27240	930.06849	-612.27261	-382.77005	721.47479	-403.69833	-378.38373	720.59075	-593.20779	-372.42489	728.47170	-419.50182	-362.21264	723.63318	-584.24728	
172	1.71000000	-122.98065	461.40943	-356.81736	-91.81793	361.73794	-369.58682	-273.90980	89.15184	-388.12512	-336.32453	56.89082	-440.96907	-160.31946	42.77853	-343.56944	-125.03466	71.53447	-396.89628	-118.31532	501.87165	-757.93001	-79.08850	411.53005	-766.45674	-247.32776	117.08260	-797.37520	-319.52620	82.78561	-743.41746	-158.12549	41.40474	-847.39544	-102.34261	61.34472	-798.21689	-137.65734	257.63050	-377.31223	-151.08292	382.44286	-327.38120	-203.06193	279.76051	-329.95702	-154.39517	455.48161	-790.31353	-200.38161	344.65440	-812.78085	-268.37578	695.37909	-321.86966	-189.86672	623.91712	-342.69574	-205.09075	562.70342	-314.36388	-342.75717	610.97604	-308.90586	-254.07130	537.86415	-329.16058	-241.94606	709.87545	-700.17317	-131.21483	627.20101	-713.74775	-307.88805	638.54403	-750.06033	-203.07451	554.49619	-752.02258	-266.61763	762.76195	-379.44220	-427.04470	890.02270	-459.69308	-263.49187	761.93463	-629.07619	-421.22333	887.51024	-555.16404	-137.07435	1227.24086	-465.24043	-49.26598	1154.59592	-314.72142	-55.45448	1158.17972	-607.87760	-53.84964	1104.93561	-450.28598	-51.76453	1109.85541	-489.44422	27.92746	1062.19218	-277.65702	79.56322	856.46416	-316.63139	102.03859	874.17472	-252.93126	181.42670	915.65295	-285.69108	294.13716	944.22185	-404.60948	318.07693	919.11447	-368.23861	12.65112	1065.22665	-663.20901	61.92930	867.47211	-640.73231	88.29949	900.31938	-710.72465	155.48715	933.07115	-683.78204	289.19567	960.86617	-578.19124	306.47836	929.33257	-616.04829	-380.04935	726.19207	-404.14814	-375.61357	725.68071	-593.65745	-369.45199	733.28186	-419.97499	-359.42686	728.95402	-584.38542	
